<svg xmlns="http://www.w3.org/2000/svg" id="SvgjsSvg637627" width="4096" height="2246.7270098019108" version="1.1" xmlns:xlink="http://www.w3.org/1999/xlink" xmlns:svgjs="http://svgjs.com/svgjs"><defs id="SvgjsDefs637628"></defs><g id="SvgjsG637629" transform="translate(328, 328.0000000000001) scale(34.4)" opacity="1"><defs id="SvgjsDefs184423"></defs><g id="SvgjsG184424" transform="scale(0.2164502164502165)" opacity="1"><g id="SvgjsG184425" class="YBSpv8J7k" transform="translate(30.11612548800386, 32.53962953906987) scale(0.4664335249714153) rotate(317, 164.70000000000002, 159.2500000000001)" stroke="#000000" stroke-width="0.8036896361568048px" light-content="false" non-strokable="false" fill="#1f1f1f"><path d="M8.4 279.2c.1 1.7.1 3.5.2 5.2.1 0 .1-.1.2-.1.1-.2.2-.2.4-.2-.1-1.7-.1-3.4-.2-5.3-.2.2-.4.3-.6.4zM2.9 31zM.4 33c.2-.2.4-.3.6-.5 0-.6 0-1.2-.1-1.8-.3-.1-.5-.1-.6-.2 0 .8.1 1.6.1 2.5zm.8 28.4c-.1 1.6.3 9.4.7 17.9-.2.6-.1 3.6.1 7.6.1-.3.4-.5.7-.6.1 0 .2-.1.3-.1v-.1c-.5-.1-.8-.4-.7-.8.1-.8.2-1.8.5-2h.1c-.1-2-.1-4-.2-6.2-.1 0-.1.1-.2.1-.3-5.6-.7-16.4-.9-23.2 0-3.5-.3-10.1-.5-14.4-.2 0-.4-.1-.6-.2.3 7.1.5 14.4.7 22zm2.5 60.8c0-.7-.1-1.4-.1-2.1 0-1.9.1-3.4.1-5.4.1 0 0-5.6.1-5.7-.1-3-.2-5.6-.4-8.9.3.2-.1-6.3-.3-11.4-.6-.1-.9-.3-1.1-.7.2 3.8.4 8.3.5 12.5.1 1.5.1 2.6.1 3.7.1 4.1.2 8.6.3 12.7l.2 5.3h.6zm139.6 193.2c0-.1 0-.1 0 0h-.2.2zM6.9 204.5c-.1-3.1-.2-6.3-.3-9.4v-1c0-.2-.1-.3-.1-.5 0-.1 0-.2.1-.3-.1-3.3-.2-6.8-.4-10.1-.1-.1-.1-.3-.1-.5-.1-.3 0-.6.1-.7v-.6c-.1 0-.2.1-.3 0h-.5c0 .8.2 1.8-.1 2.1-.1.1-.2.1-.3.2.1 1.6.1 3.3.2 5 .1 1.7.1 3.5.2 5.3h.2c0 .3 0 .7-.1 1-.1.4 0 .6-.1.7.1 3 .2 6.1.3 9.1.1-.1.2-.1.3-.2.3-.1.6-.2.9-.1zM8 141.2c0-1.1-.1-2.2-.1-3.2 0 1-.1 2.1-.1 3.3 0-.1.1-.1.2-.1z"></path><path d="M329.1 299.2c.2-.5.2-1.1.3-1.7-.1.4-.4.8-.7 1.1-.2 0-.3.1-.5.1-.2-.2-.5-.3-.8-.4-.2.3-.5.5-.9.5-1.1 0-2.1 0-3.2.1-.8 0-1.7 0-2.6.1v-1.4c0-2.5 0-4.9-.2-6.6.1-3.1 0-5.5-.2-12.8v-3.5c.1-2.4.5-3.3.4-7.9 0-2.5 0-4.6-.2-6.8v-.5c-.1.4-.3.7-.6 1-.7.6-1.5 1.1-2.4.6-.3-.2-.5-.5-.9-.2-.2-.2-.5-.3-.7-.5-1.4-.6-1.5-1.4-.4-2.4.3-.5.7-.9 1-1.4.6-.1 1.2-.3 1.8-.3 1 0 1.7.5 2.1 1.4v.1c0-.7-.1-1.4-.1-2.2v-20c0-.7.1-1.4.1-2.3.1-1.3.2-2.5.3-4-.5 0-1.1-.2-1-.7 0-.8-.2-1.8.1-2.1.1-.2.6-.3 1-.4v-.7c-.1-.7-.1-1.8-.1-3-.9-.6-.5-1.2 0-1.8 0-2.2 0-4.6-.3-6.1v-6.2c.1-3.5.1-7 .2-10.7.1-.5.1-1.2.1-2-.2 0-.4 0-.6-.2-.4-.4-.6-.8-.3-1.3.2-.5.6-.6 1-.5 0-2.3 0-5.1-.1-8.1.1-5.4.1-9.2-.3-13 0-1.5.1-3.9-.2-5.3 0-2.2.1-4.7 0-7.8-.1 0-.2-.1-.3-.1-.1-.2-.3-.4-.4-.7-.2-.4-.1-.8.3-1.1.1-.1.3-.2.4-.3 0-1.4-.1-2.8-.2-4.4 0-2.3.1-4.8.1-7.3.4-3 .6-.4 1-2.6-.1-3-.1-5.9-.2-8.9 0-4.2-.1-6.8 0-10.2-.1-1.7-.1-3.7-.2-5.3v-4.1c.5 8.4.8 20.5 1.2 29.1.2 0 .4-.1.6 0 .5.1 1 .3 1 .9 0 .2 0 .4.2.5v.5c.2.8-.2 1.1-1 .9h-.7c.1 1.8.2 3.4.3 4.7 0 .7.1 1.4.1 2.1.1-.1.3-.3.5-.4h.3c.2.3.7.4.7.9s-.1.9-.6 1.1c-.3.1-.6.1-.9-.1.2 7.1.5 14.2.8 21.3.3 0 .5.1.4.4-.1.3-.2.3-.4.2.1 2.5.2 5 .2 7.5.2 0 .3 0 .5.1.6.1.9-.1.9.5s-.4.5-.8.5c-.2 0-.4.1-.5 0 0 1.8.1 3.5.1 5.3.3 4.7.5 9.4.7 14 .3 0 .6 0 .8.1.6.1.9-.1.9.5s-.4.5-.8.5c-.4.1-.7.1-.9 0 .2 5.4.4 10.8.5 16.2.9.2 1.1 1 1 1.9-.1.1-.2.2-.3.4-.2 0-.4.1-.7.1.2 5.5.3 11.1.5 16.8.3 0 .5 0 .7.1-.1-.3-.2-.5-.1-.9.1-.6.7-.9 1.2-.9.1 0 .2 0 .4.1v-1.1c-.6.3-1.8.2-1.7-.5 0-.8-.2-1.8.1-2.1.2-.2 1.1-.4 1.6-.3 0-4.2-.3-9.9-.7-15.8-.2-6-.4-11.9-.5-17.9-.7-.5-.7-1 0-1.4 0-2.1 0-4.2-.1-7.4-.5-.1-1.2-.6-1.7-.9-1 0-.2-2.4.7-1.9l.9.3c-.1-2.8-.2-3.9-.5-6.7-.1-2.5-.2-4.9-.3-7.3h-.2c-1 .2-1.3-.2-1.1-1.2.3 0 .7 0 1 .1h.2c-.3-7.9-.6-15.6-.9-23.6 0-1.4-.1-2.7-.1-4-.2-.1-.4-.1-.4-.3-.1-.4.1-1.2.3-1.8-.1-1.5-.1-3.1-.2-4.7 0-1.1-.1-2.2-.1-3.7.3-.9-.1-8.7-.2-12.4-.1-.7-.2-1-.3-1.7-.1-2.5-.2-4.9-.3-7.3-.3 0-.5-.1-.8-.1-.3-.4-.6-.7-.8-1.1-.3-.7-.2-1.3.3-1.9.3-.4.7-.6 1.2-.7v-1.3c-.4.2-1 .3-1.6.2-1.2-.2-1.8-1.2-1.8-2.2 0-.5.1-1 .3-1.3h-.3c-.4.1-.7.1-.9 0h-.1c-.8 0-1.8.2-2.1-.1-.3-.2-.6-1.7-.2-2 .4-.2 1.4-.1 2.1 0 .5-.2.8.3.8.9h.2c.6.1.9 0 .9.5.6-.5 1.5-.7 2.4-.8 0-.9-.1-1.7-.1-2.6.1-.1.2-.1.3-.1-.4-10.4-.1-8.3-.3-18l.1-.1c.2 1.4.4 2.5.6 3.5.3 6.7.4 2.1.5 3.1l-.3-8.7c-.2-.4-.3-.8-.3-1.3 0-.4.1-.7.2-.9 0-.4 0-.9-.1-1.3-.3-7.1-.5-14.5-.8-21.6-.2-1-.4-2.1-.6-3.1 0-.8-.1-1.5-.1-1.9-.1-4.9-.2-9.7-.4-14.6 0-.9-.1-2-.1-3-.2-.1-.3-.2-.4-.4.1-.2.3-.5.4-.7-.1-2.5-.2-4.9-.2-6.3-.3-7.6-.5-14.9-.8-22.1v-1c0-.4 0-1-.2-1.6-.1-.3-.2-.7-.3-1-.1-.3-.4-.7-.8-1.1-.4-.4-.9-.7-1.4-.9-.6-.2-1.3-.4-2.2-.4-3 .1-8.6.3-15.5.5 0 .6-.2 1.2-.7 1.1-.8 0-1.8.2-2.1-.1-.2-.1-.3-.5-.3-1-7.2.2-15.6.5-23.8.7-.1.2-.3.4-.6.3-.8 0-1.8.2-2.1-.1 0 0-.1-.1-.1-.2-14 .4-27.4.9-34.6 1.1-.4.6-.8.8-1.5.7-.4-.1-.6-.3-.7-.6-.6 0-1.2 0-1.6.1-4.1.1-8.2.3-12.3.4l-14.6.3c-3.4.1-7.1.2-10.4.3-.6 0-1.2 0-1.9.1-1.2-.1-2.6-.2-5.1-.2H186c-.5-.1-1-.2-1.5-.2 0 .2-.1.3-.1.5.4 1-2.2 1-2 0v-.7c-3-.3-8.7-.5-22.6-.6.9.1.4.1-.8.2h-.5c-2.8 0-7.8-.1-5.9.2-2.3.2-10.8 0-18.8-.2-.2.3-.4.6-.5.9 0 1-2.4.2-1.9-.7 0-.1.1-.2.1-.3-2 0-3.8-.1-5.5-.1-1.4.1-3.7.2-6.5.1-.2.2-.6.2-1 0-7.4-.1-17.9-.5-27.2-.6-.7 0-1.7.1-2.9.1 0 0 .1 0 .1.1.2.4 0 1.4-.1 2.1.4 1-2.2 1.1-2 .1 0-.8-.1-1.8.1-2.1.1-.1.2-.1.3-.2-2.1 0-4.6 0-7.2-.1-2 .6-10.2.4-8.5.6h-3.3c.2.6 0 1.1-.3 1.5 0 .5 0 .7-.5.7-.1 0-.2 0-.3-.1-.1.1-.2.1-.3.2-.2 0-.4-.1-.6-.1-.3-.6-1.1-.8-1-1.6 0-.2 0-.4.1-.6h-.3c-1-.1-2.6-.1-1.3-.2-3.6-.2-16.3-.4-14 0-5.6 0-12-.2-16.7-.3-.7.2-3.2.1-6.2.1-1 0-2 0-3.1-.1h-1.8c.1.1.2.2.2.3 1 .3-.5 2.4-1.2 1.6-.6-.5-1.5-1-1.6-1.4v-.1c-.4.2-.8.3-1.2.6h-1.4c-1 .1-1.8.3-2.6.6-.6.1-1.4.7-1.8 1.4-.3.6-.6 1.3-.8 2.1-.1.9-.1 1.9-.1 2.9V12c.1-.1.1-.2.2-.3.3-.5.5-.9.8-1.4.5-.2 1.1-.4 1.6-.5.9-.1 1.6.3 2.1 1.1.5.9.5 1.8-.2 2.5-.5.7-1.2 1.1-2.2.8-.3-.1-.5-.4-.8-.1-.2-.1-.5-.3-.7-.4-.4-.1-.6-.2-.8-.4V15H9.9c-1.7.1-3.4.1-5 .2H3.6c.2.4.4 1 .6 1.4.4.3.1.7-.3 1 .1.2.2.3.4.4 0 .6-.2 1.2-.8 1-.6-.2-.6-.5-.4-.9-.2.1-.5 0-.6-.1 0 .9.1 1.7.1 2.6.1 2.3.1 4.5.2 6.7.5.1.9.4 1.2.8.5.7.5 1.4 0 2.1-.2.2-.3.4-.5.6.5-.2 1-.3 1.5-.3-.1-2.4-.1-4.3 0-5-.1-2.6-.2-5-.3-7.3 0-.2-.1-.5.1-.7.2-.1.5 0 .7-.1 1.5 0 3-.1 4.4-.1h1v3.4c.2-.3.4-.5.7-.8 1.1-.1 2.3-.4 3.4-.3 1.8.2 3.1 1.3 3.7 3 .6 1.9.2 3.7-1.3 4.9-1.3 1.1-2.9 1.7-4.6.6-.5-.3-.9-1-1.7-.5l-.1-.1v2.4c-.1 2.8-.2 6.3 0 8.4-.1 2.2-.1 4.4-.2 6.5 0 0 .1 0 .1.1.3.4.2 1.4.2 2.1.3.5-.4.9-1 .9v2.2c.1 1.8.2 3.4.3 5.3v1c-.2-.7-.3.4-.4 1.5.4 0 .7-.1 1.1-.1 1.6.1 2.8 1 3.3 2.5.7 1.7.3 3.2-.9 4.4-1 .9-2.1 1.5-3.4 1 0 .8.1 1.7.1 2.7-.1 2.5-.2 3.7-.2 5 0 3.1-.2 7.8.1 9.8 0 2.6 0 4.9.1 7.4 0 2.8-.1 5.6-.1 8.4 0 .5-.1 1.2-.1 1.9 1.1-.1 1.4.7 1.5 1.7-.1.1-.1.3-.2.4-.5.1-.8.5-1.3.3v4.3c.1 2.1.2 4.2.4 6.3v13.3c.1-.2.3-.3.4-.5.4 0 .7-.1 1.1-.1.6 0 1 .4 1.2.9.2.6.1 1.2-.4 1.6-.4.4-.9.6-1.4.3-.2-.1-.3-.3-.5-.1-.1-.1-.2-.2-.3-.2v5.9c-.2.9-.4 4.6-.6 6.9 0 2.5 0 5.1.1 8.8v2.5c-.4 2.6-.1 8.4-.1 10.9.1 1.3.2 2.4.4 3.8-.2 1.7-.1 4.8-.2 7.3-.1.9-.2 1.9-.2 2.9.5.3.9.9.4 1.3-.2.1-.3.2-.5.2-.1 2.4-.2 5.1-.2 7.9-.1-1-.1-2-.2-3 0-1.8-.1-3.5-.1-5.2-.1-.2-.2-.5-.3-.7.1-.1.2-.1.3-.2v-3c-.1.2-.4.2-.7.2-1 .2-1.3-.2-1.1-1.2.3 0 .7 0 1 .1.4.1.7 0 .8.1v-1.1c-.1-3.7-.2-7.1-.3-10.8 0 0-.1.1-.3.1-.3-5.2-.5-12.2-.5-17.9.3 5.2.3 2.3.2-2.2h-.1c-.6 0-.5-.4-.5-.7-.1-.5 0-.8.2-1-.1-1.2-.1-2.5-.2-3.7-.5.3-1.5.2-1.7-.2.3 7.4.5 14.1.7 20.1.1-.2.4-.3.9-.2 0 .3 0 .5-.1.8-.1.5.1.7-.4.7-.2 0-.3-.1-.3-.1v2.1c.1 0 .3 0 .4.1 0 .3 0 .7-.1 1-.1.5 0 .8-.3.8 0 2.4.1 4.7.1 6.9l.3 9c0 1 .1 2 .1 3.1v.5c.1 3.4.2 7 .3 10.4.2 0 .4-.1.5 0 .4 0 .8.2 1.2.4.1.1.2.3.2.4-.2.5 0 1.1-.6 1.5-.3.2-.6.3-.9.3h-.2c-.1 0-.2 0-.3-.1 0 1 .1 2 .1 2.9v6.7c.1.1.2.1.3.2.4.4.7 1 .4 1.7-.1.2-.3.4-.1.6-.1.2-.2.3-.3.5-.1.1-.1.2-.2.3v1c-.1-.1-.2-.4-.3-.7-.3.3-.7.1-1.2-.4-.1-.1-.2-.2-.4-.3.2 5.6.3 11.2.5 16.7.1 3.6.2 7 .3 10.5.4.2.9 1 1.3 1.6.8.4-.5 1.9-1.2 1.6v.4c0 1.3.1 2.9.1 4.7.2.2.5.4.7.7.7.9 1.1 1.9.8 3h1.2c.9-.5 1.4 2 .4 2-.8.1-1.7.4-2.1.2-.1-.1-.3-.4-.4-.7-.2.3-.4.6-.1 1l-.2.2c.1 2.6.2 5.5.4 8.6.1 2.6.2 5.4.3 8.1.3 0 .6-.1.8-.1v-5.1c.3 5.2.5 4.7.5-.3.2 1.4.4 2.4.6 3.5.2 6.9.5 14 .7 20.9v.1c.2 3.7.3 7.3.4 10.8.4-.8 2.3.8 1.5 1.4-.5.5-1 1.1-1.4 1.3v1.6c1.1.4 1.9 1.2 1.2 2.4-.4.6-.8.8-1.1.9v1.5c0 .6 0 1.3.1 2 0 .7.1 1.4.2 2 0 .6.5 1.3 1.2 1.5.6.1 1.3.1 2 .1.5 0 1 0 1.6-.1v.8c0 .6.5 1.1 1.1 1.2l4.3.1c-.1-.9.3-1.5 1.1-2 .9-.5 1.8-.5 2.5.2.6.5 1 1.1.8 1.9l5 .5c-.1-.5-.1-1 0-1.6.2-1.8 1.3-3.1 3-3.7 1.9-.6 3.7-.2 4.9 1.3 1 1.2 1.6 2.5 1 4l6.1.1h-.2c.8 0 1.5.1 1.8.1 3.5.1 7 .1 10.6.2H63c3.4.2 2.7.4 6.9.5.4-.9 1.2-1.6 2.2-2 1.7-.7 3.2-.3 4.4.9.3.3.6.7.8 1.1 2 0 3.9-.1 5.9-.1.1-.4.1-.8.2-1.2-.4-1 2.2-1 2 0v1.3c5.9.3 13.9.5 23.5.6 2.6 0 5.2 0 8.3-.1l4 .1c4.3.1 8.4.2 12.5.3 0-.4.5-1.3.9-1.9 0-1 2.4-.2 1.9.7-.2.4-.3.9-.5 1.3.8 0 1.7 0 2.5.1v-.3c0-.6.4-1 .9-1.2.6-.2 1.2-.1 1.6.4.3.3.5.7.4 1.2h2.2c.1-.1.2-.2.4-.2.5-.1.7.1.8.4.7 0 1.4.1 2 .1 3.9.1 8.7.1 8.5.5 4.3 0 7.6 0 11.4.1h1.8v-.1c.2 0 .3 0 .5-.1 0 0 .1.1.1.2h.1c-.1-.2-.2-.4-.2-.6 0-.1.1-.2.1-.3.3-.1.5-.5 1-.4.5.1.7.4.8.8 0 .2 0 .3-.1.5 2.1.1 4.1.1 6.2.2-4 0-2.9.2-4.2.3 3.3 0 6.9.1 10.3.2h.2c2.7 0 5.3 0 7.5-.1 6.1.1 12 .3 17.9.4.1-.1.2-.2.2-.3.2.1.4.2.7.3 2.2 0 4.4.1 6.6.1 0-.3 0-.6.1-.8.2-.3 1.7-.6 2-.2.1.2.1.6.1 1h1.5c-1.7.3 11.5.5 13.8.5 1.5 0 3 0 4.5.1.4-.1.7-.1 1 0 3.2 0 6.5.1 9.7.1v-.5c.3-.3.6-.7 1-1 .6-.4 1.3-.4 1.9 0 .6.4.9.8.9 1.4h.7c4.6.2 10.8.4 17.3.5.4-.3.7-.6 1.1-.8.6.1 1.2 0 1.7.2.5.1.8.4 1.1.7h.2c-.3-.3-.5-.7-.4-1.3.1-.8.7-1.2 1.3-1.3 1.5-.1 1.8 1 1.9 2.2-.1.1-.1.3-.2.4 5 .1 9.8.2 14 .4 3.2 0 6.4 0 9.8.1h5.3c-.4-.2-.6-.6-.3-1 .7-1 1.2-.1 1.6.4-.2.2-.4.4-.5.6h.4c.7 0 1.2-.2 1.8-.4.5-.1 1.1-.4 1.5-.9.4-.5.6-1 .7-1.5.2-.6.3-1.2.3-1.9v-1.8h.5c.9 0 1.9 0 2.7-.2.8-.2 1.5-.5 2.2-.8.2-.1.5-.2.8-.3.3-.1.6-.4.9-.6.3-.3.6-.6.8-.9l.6-.9c.4-.8.7-1.7.8-2.9.1-1.1 0-2.4.1-3.6v-1.7l2-.1 2.2-.1c.9 0 1.7-.1 2.5-.3-.1.5.7 0 1-.7zm-6.6-174.7c.1 0 .3 0 .4.1.2.4.8.6.8 1.3-.1.7-.3 1.1-1 1.3-.6.2-1.1-.2-1.3-.6-.4-1.1.3-1.7 1.1-2.1zm-2.7-13.1c.3 0 .7 0 1 .1.6.1.9-.1.9.5s-.4.5-.8.5c-1 .2-1.4-.1-1.1-1.1zm-309-32.5c0-1.4 0-2.8.1-4 0 1.2 0 2.4-.1 4zm8-69.4c-.1-.4.7-1.7 1.1-1.6.4.1 1.1.9 1.6 1.4 1 .3-.5 2.4-1.2 1.6-.5-.5-1.4-1-1.5-1.4zm.4 178.8l-.6.3c-.9.8-1.5.6-1.8-.5-.2-.4-.4-.8-.7-1.2.1-.5.2-1 .4-1.4.3-.7.9-1.1 1.7-1 .9 0 1.5.4 1.8 1.2.3.7.3 1.4-.4 2-.2.1-.5.2-.4.6zm-4-46.3c.6-.2.8.5.7 1.2.4 0 .9.1 1.2.1 1-.4 1.2 2.1.1 2-.8 0-1.8.2-2.1-.1-.2-.1-.3-.7-.4-1.2-.7 0-1.5 0-1.7-.2-.3-.3-.4-1.8 0-2s1.5.1 2.2.2zm-.8-22.2c.2.1.4.3.6.4-.1.5-.4.9-.8.6-.7-.4-.2-.7.2-1zm1.1.5c.1-.3.4-.5.6-.4.6.1.7.5.7 1.1l-.2.2c-.3 0-.5.2-.8 0-.3-.2-.4-.5-.3-.9zm2 49.7c0 .2 0 .5-.1.7-.1.5 0 .6-.4.6s-.4-.3-.4-.6c-.1-.7.2-.9.9-.7zm-.4-17.4c-.2-1 .2-1.3 1.2-1.1 0 .3 0 .7-.1 1-.1.6.1.9-.5.9s-.6-.4-.6-.8zm-.6 10.6v.7c-.1.4 0 .6-.4.6s-.4-.3-.3-.5c-.1-.8.1-1 .7-.8zm-2.1-8.5c0 .6-.4.5-.8.5-1 .2-1.3-.2-1.1-1.2.3 0 .7 0 1 .1.7.1.9 0 .9.6zm-.5 12.9zm-.8 24.7c.4-.1 1.3.5 1.9.9 1 0 .2 2.4-.7 1.9-.7-.3-1.7-.6-1.9-.9-.2-.4.2-1.9.7-1.9zm1.6-24.8c.3 0 .7 0 1 .1.6.1.9-.1.9.5s-.4.5-.8.5c-1 .3-1.3-.1-1.1-1.1zm4.9 6.5c-1 .2-1.3-.2-1.1-1.2.3 0 .7 0 1 .1.6.1.9-.1.9.5s-.4.6-.8.6zm.4-8.5c0 .2 0 .5-.1.7-.1.5 0 .6-.4.6s-.4-.3-.4-.6c0-.6.2-.9.9-.7zm-1.1-9.1v-.5c.3-.1.6-.1.7.2 0 .5-.4.4-.7.3zm.6-20c-.1-.1-.3-.2-.4 0-.1-.1-.2-.1-.4-.2-.7-.2-.8-.6-.3-1.1.1-.2.3-.5.4-.7.3-.1.5-.2.8-.2.5-.1.8.2 1.1.6.3.4.2.9-.1 1.3-.2.2-.6.4-1.1.3zm1.3-7.5c-.6-.2-.2-.6 0-.9.2.1.3.2.5.3 0 .4-.1.8-.5.6zM18.3 38c.5.4 1 .8 1.6 1.2-.2 1.3-1 2.4-2.2 1.7-1.8-1-.3-2 .6-2.9zM14 77.8c.3.1.6.2.9.2.1.6 0 1.2-.6 1.1-1-.1-.5-.8-.3-1.3zm-.5 6.6c0-.8 0-1.8.3-2.1s1.8-.4 2 0-.1 1.4-.3 2.1c.4 1.1-2.2 1-2 0zm-.5 5.2l.3-1.2c.4-.2.8-.5 1.2-.7.7-.3 1.4-.1 1.9.5.5.5.7 1.1.5 1.7h.7c0 .3 0 .7-.1 1-.1.6.1.9-.5.9s-.5-.4-.5-.8v-.2c-.3.3-.7.5-1.2.5-.3 0-.5-.2-.7.1-.2-.1-.4-.1-.6-.2-1.2-.1-1.5-.6-1-1.6zm-.4 41.8c.8-.1.9.5 1 1.1 0 .1-.1.2-.1.3-.3 0-.6.3-.9.2-.4-.2-.6-.4-.6-.9 0-.4.3-.6.6-.7zm-.8 17.8c.4-.4.9-.4 1.4-.2.4.2.7.6.6 1.1 0 .2-.1.3.1.5 0 .1-.1.3-.1.4-.1.8-.5.9-1.1.5-.3-.1-.6-.2-.8-.3-.1-.3-.3-.5-.4-.8-.2-.4-.1-.9.3-1.2zm-.8 8c.1 0 .2.1.3.1.1.3.5.5.4 1-.1.5-.4.7-.8.8-.4 0-.7-.2-.8-.6-.3-.8.2-1.1.9-1.3zm-1.2 2.2c.3 0 .7 0 1 .1.6.1.9-.1.9.5s-.4.5-.8.5c-1 .3-1.4-.1-1.1-1.1zm-2.6 60.7c0-.4 1.2-1.4 1.6-1.2.4.2.8 1.2 1.1 1.8.9.6-1.3 2.1-1.7 1.1-.4-.5-1-1.3-1-1.7zM9.1 232v-1.3c0 2.2.1 4.7.3 8v1c-.1-2.3-.2-4.8-.3-7.7zm.5 12.2zm-1.1-14.9c-.2-.8-.5-1.7-.3-2.1.2-.4 1.6-.9 1.9-.5.3.3.3 1.4.4 2.1.6.8-1.9 1.5-2 .5zm.6 28.3c.3 0 .7 0 1 .1.6.1.9-.1.9.5s-.4.5-.8.5c-.9.2-1.3-.2-1.1-1.1zm9.4-10.1c-.4.4-.8.5-1.3.5.4.6.2 1.9-.5 1.8v1.5c.1-.2.2-.3.4-.5.8.1 1.5.5 1.1 1.3-.5.9-1 .5-1.5.1l-.2 17.4c.6.3.8 2 0 2l-.5 31.8c-.1.3-.1.6-.1.9-.2-.9-.3-1.7-.5-2.6-.1-1.6-.2-3.5-.3-5.1v-2.5c.1-7 .2-14.7.3-22.4-.5.1-1 .1-1.2 0 0 0-.1-.1-.1-.2-.1 4.5-.1 9-.2 13.5-.1 5.3-.2 10.6-.3 15.8-.1 1-.2 2.3-.2 3.5v.3c.5-.5 2.2.8 1.5 1.4-.2.3-.5.7-.7 1 .3.2.6.2.9.2.3 0 .5.1.8.1v1.4h-1.4c-.4 0-.9.1-1.2-.2-.3-.3-.2-.7-.3-1-.5-.2-1.2-.7-1.2-1.1.1-.4.6-.9 1.1-1.3v-.5c0-.4-.1-.7-.1-1-.1-1.1-.2-1.6-.4-4.5-.3-7.4.1-4.2-.3-12.7-.5-7.7-.7-15.1-.9-22.5h-.1c-1 .2-1.3-.2-1.1-1.2.3 0 .7 0 1 .1h.1l-.3-13.7c.2 1.8.3 6.3.5 8.9.3.6-.5-15.7-.6-21.7-.2-5.8-.4-11.4-.5-16.9V215c-.1-3.1-.2-6-.3-8.8.2 1.2.3-4.4.6-4.6 0-6.6 0-13.3.1-19.7 0-1.5.1-3.3.1-4.8v-3.3c0-3 .1-5.9.1-8.8.1-.5.1-1 .2-1.2.1.8.1 1.6.2 2.7.3-6.5.5 1.8.7 2.7.1.6.3.9.4 1.5v3.3c.2 0 .3.1.3.5 0 .3-.1.5-.3.5 0 2.5 0 4.9.1 6.8 0 .7-.1 1.5-.1 2.5-.3 1.4-.4 11.8-.1 15.8.1 0 .1.1.2.1.3.9.5 1.8.8 3 .1 1.2.1 2.5.2 3.8l.1.1c.6.1.4 1 0 1.5 0 .7.1 1.5.1 2.2v6.1c.1.1.2.1.4.2v2.1c.3-.5 1.1-1.2 1.4-1.1.4.2.9 1.1 1.2 1.7.9.5-1 2.2-1.5 1.3-.4-.5-.9-1-1.1-1.4 0 3.8-.1 7.1.1 9.7v8.6c.4 0 .9.1 1.3.2v-1l.6.3.1-2.3v2c.1-1.5.3-3 .4-4.1 0-.1.1-.1.1-.2l-.2 12.5c.5-.2 1.2-.1 1.9.1.1.1.2.3.3.4.2.4.5 1.1-.1 1.6zm-.5-18.1c.2.3.3.6 0 .9-.8.8-1.1-.1-1.4-.7l.9-.6h.1c-.5-.6-1.1-1.2-1.1-1.6 0-.4 1-1.5 1.5-1.3.4.2.9 1.1 1.3 1.7.5.4-.6 1.6-1.3 1.6zm4.3 76.7c-.5.6-1 1.5-1.4 1.6-.4.1-1.7-.7-1.6-1.1.1-.4.9-1.1 1.4-1.6.3-1.1 2.4.4 1.6 1.1zM27.5 8c-.6-.5-1.5-1-1.6-1.4 0-.3.7-1.6 1.2-1.6.4.1 1.1.9 1.6 1.4 1 .3-.5 2.4-1.2 1.6zm6.6 5.1c-.1.1-.2.2-.4.3-.5-.1-1.1.2-1.6-.3s-.7-1.1-.4-1.7c.3-.6.9-.8 1.4-.6 1.3.3 1.3 1.3 1 2.3zm7.9-2c-1.2.4-2.5.4-3.4-.8-.2-.3-.4-.8-.8-.8-.4.5-1.1.9-1.4.4-.6-.5-1.4-1.1-1.4-1.5 0-.4.8-1.4 1.2-1.5-.1-.8.5-1.3 1.8-1.6.7-.4 1.4-.7 2.1-1.1.8.2 1.7.4 2.4.7 1.2.6 1.8 1.7 1.7 3.1 0 1.6-.8 2.7-2.2 3.1zm4.3-4c-.2.1-.3.1-.5.2-.5-.3-1.2-.2-1.5-.9-.3-.8-.3-1.4.3-2 .5-.5 1.2-.4 1.7-.1 1.2.9.7 1.9 0 2.8zm1.3 4.5c-.7-.7.1-1 .6-1.3.2.2.4.5.6.7-.2.6-.7 1.1-1.2.6zm4.8 297.2c-1.1 1.8-2.1.3-2.9-.6.4-.5.8-1 1.2-1.6 1.3.2 2.4 1 1.7 2.2zM58 13.2c-.7 0-1.3.6-2 .1-.8-.5-1.2-1.1-1-2 .1-.4.3-.6.5-.8.1-.6.1-1.3.3-1.5.1-.1.6-.2 1-.2.2-.5.6-.6 1.2-.5 0 .3 0 .7-.1 1-.1.5 0 .7-.2.8 0 .1 0 .2-.1.3.6.5.7 1.3.7 2.2 0 .2-.2.4-.3.6zm.2-5.6c-.2-.2-.4-.5-.8-.3-.2-.2-.3-.4-.5-.5-.6-.4-.9-.8-.7-1.2-.6.1-1.2 0-1.2-.6-.1-.8-.3-1.8-.1-2.1.2-.3 1.7-.7 1.9-.3.3.2.2 1.3.2 2 .4-.3.7-.7 1.1-1 .5 0 1.1-.1 1.6.1.8.2 1.4.7 1.5 1.6.2.9-.1 1.7-.9 2.2-.6.5-1.4.7-2.1.1zM61 11c-.5-1 .5-1 1.1-1.2.1.3.2.7.4 1-.5.6-1.2.9-1.5.2zm6.7-3.3c.1 1-2.4.3-1.9-.6.2-.7.5-1.7.8-1.9.3-.2 1.8.1 1.9.6 0 .4-.5 1.3-.8 1.9zm6.7-1c-1.1-.6-.2-1.3.3-1.8.3.2.7.5 1 .7-.1.8-.5 1.5-1.3 1.1zm6.2 299.4c-.8 0-1.8 0-2.1-.3s-.4-1.8 0-2c.4-.2 1.4.1 2.1.2 1-.2 1 2.4 0 2.1zm.6-298.9c-.1.1-.3.2-.4.3-.6-.2-1.2.2-1.7-.4-.4-.4-.5-.8-.5-1.3-.6.4-1.9.2-1.8-.5 0-.8-.1-1.8.1-2.1.3-.3 1.8-.5 2-.1.2.4 0 1.3-.1 2.1.4-.6 1-.7 1.6-.5 1.3.3 1.2 1.4.8 2.5zm4.2 4.1c.1 1-2.4.4-2-.5.2-.7.4-1.8.7-2s1.8 0 1.9.4-.3 1.5-.6 2.1zm5.2 300.9c-.1 1-.8.5-1.4.3.1-.3.2-.6.2-.9.7-.1 1.3 0 1.2.6zm1.8-298.9c-.2-.8-.5-1.7-.3-2.1.2-.4 1.6-.9 1.9-.5s.3 1.4.4 2.1c.5.8-2 1.5-2 .5zM95.9 313c-.8 0-1.8 0-2.1-.3s-.4-1.8 0-2c.4-.2 1.4.1 2.1.3 1.1-.4 1 2.2 0 2zm.3-306.5c-.8-.8.2-1.1.8-1.5l.6.9V6c.6-.5 1.2-1.1 1.6-1.1.4 0 1.5 1 1.3 1.5-.2.4-1.1.9-1.7 1.3-.4.8-1.6-.4-1.6-1.1-.3.2-.7.2-1-.1zm2.3 298.2c-1 .2-1.3-.2-1.1-1.2.3 0 .7 0 1 .1.6.1.9-.1.9.5s-.4.6-.8.6zm3.9 5.3h-.2c.3.3.5.7.5 1.2 0 .3-.2.5.1.7-.1.2-.1.4-.2.6-.1 1.1-.6 1.4-1.6.9l-1.2-.3c-.2-.4-.5-.8-.7-1.2-.3-.7-.1-1.4.5-1.9.5-.5 1.1-.7 1.7-.5v-.7c.3 0 .7 0 1 .1.6.1.9-.1.9.5 0 .7-.4.6-.8.6zm2.3-5.6c-1 .2-1.3-.2-1.1-1.2.3 0 .7 0 1 .1.6.1.9-.1.9.5 0 .7-.4.6-.8.6zm1 2.3c0-.3 0-.7.1-1 .1-.6-.1-.9.5-.8s.5.4.5.8c.2.9-.1 1.3-1.1 1zm2.8-2.6c-.3.9-.9.3-1.3 0 .1-.3.3-.5.4-.8.6 0 1.1.2.9.8zm.1-299.8c-.2.4-1.1.9-1.7 1.2-.5.9-2.2-1-1.3-1.5.6-.5 1.3-1.2 1.7-1.2.3 0 1.4 1 1.3 1.5zm11 8.2c0 .3 0 .7-.1 1-.1.6.1.9-.5.9s-.5-.4-.5-.8c-.2-.9.2-1.3 1.1-1.1zm.4 293.4c-.1.2-.3.4 0 .7-.1.2-.2.4-.3.5-.3 1-.9 1.2-1.7.5-.4-.2-.7-.4-1.1-.6-.1-.4-.3-.8-.4-1.3-.1-.7.2-1.3.8-1.7.7-.4 1.4-.4 2 .1.6.5.9 1 .7 1.8zm1.8 7.7c-.1.6.1.9-.5.9s-.5-.4-.5-.8c-.2-1 .2-1.3 1.2-1.1-.1.4-.1.7-.2 1zM127.1 11c-.1.6.1.9-.5.9s-.5-.4-.5-.8c-.2-1 .2-1.3 1.2-1.1 0 .3-.1.6-.2 1zm5.2 301.4c-.4.6-.7.1-1-.2.1-.2.3-.4.4-.6.4.1.8.3.6.8zm.3-1.7c-.2.3-.5.4-.8.4-.3-.1-.5-.4-.4-.6.1-.6.5-.7 1.1-.7l.2.2c-.1.2.1.4-.1.7zm3.9-5.5c-.1.1-.2.2-.1.4-.1.1-.1.2-.2.3-.3.5-.6.6-1 .1-.2-.1-.4-.3-.5-.4 0-.2-.1-.5-.1-.7 0-.4.3-.7.6-.8.4-.2.8-.1 1.1.2.2.2.4.6.2.9zm3.9.5c-.2.6-.6.2-.9 0 .1-.2.2-.3.3-.5.4 0 .7.1.6.5zm.4-297.2c-.7.3-1.4.3-2-.4-.2-.2-.2-.5-.6-.4l-.3-.6c-.8-.9-.6-1.5.5-1.8.4-.2.8-.4 1.2-.7.5.1 1 .2 1.4.4.7.3 1.1.9 1 1.7 0 .9-.4 1.5-1.2 1.8zm1.5 304c-.1.6.1.9-.5.9s-.5-.4-.5-.8c-.2-1 .2-1.3 1.2-1.1-.1.3-.1.6-.2 1zm2.1 1.5c-.2.4-.4.6-.9.6-.4 0-.6-.3-.6-.7-.1-.8.5-.9 1.1-1 .1 0 .2.1.3.1 0 .4.3.6.1 1zm.4-8.7c-.1.6.1.9-.5.9s-.5-.4-.5-.8c-.2-1 .2-1.3 1.2-1.1-.1.3-.1.7-.2 1zm3 1.7c-.1.1-.2.3 0 .4-.1.1-.1.2-.2.4-.2.7-.6.8-1.1.3-.2-.1-.5-.3-.7-.4-.1-.3-.2-.5-.2-.8-.1-.5.2-.8.6-1.1.4-.3.9-.2 1.3.1.3.2.5.6.3 1.1zm1.6 1.2c-.1.6.1.9-.5.9s-.5-.4-.5-.8c-.2-1 .2-1.3 1.2-1.1-.1.3-.1.7-.2 1zm.7 3.2c.1.1.3.1.4.2 0 .3-.1.6-.4.5-.4-.1-.1-.4 0-.7zm1 2.3c-.1.6.1.9-.5.9s-.5-.4-.5-.8c-.2-1 .2-1.3 1.2-1.1-.1.3-.2.6-.2 1zm2.5-305.6c-.1.6.1.9-.5.9s-.5-.4-.5-.8c-.2-1 .2-1.3 1.2-1.1 0 .3-.1.6-.2 1zm3.2 303.2c-.2.3-1.7.6-2 .2-.1-.2-.1-.4-.1-.8v-.5c-.1-.5-.1-.8.1-1-.2-.9 2.2-1.1 2-.1.1.8.2 1.8 0 2.2zm10.8-4.3c.5 0 .3.4.3.7h-.5c-.2-.4-.2-.7.2-.7zM162 9.9c0 .3 0 .7-.1 1-.1.6.1.9-.5.8s-.5-.4-.5-.8c-.2-.9.2-1.3 1.1-1zm-1.1 297.4c.6-.2.9.2 1.1.7 0 .1 0 .2-.1.3-.3.1-.4.4-.8.4-.4-.1-.6-.3-.7-.6 0-.4.2-.7.5-.8zm2.1 6.5c-.1.3-.2.6-.3.8-.3.1-.5.3-.8.4-.5.1-.9 0-1.3-.4s-.4-.9-.2-1.4c.2-.4.6-.7 1.1-.6.2 0 .3.1.5-.1.1 0 .3.1.4.1.8.2 1 .6.6 1.2zm1.1-4.4c-1 .2-1.3-.2-1.1-1.2.3 0 .7 0 1 .1.6.1.9-.1.9.5-.1.7-.5.6-.8.6zm1.4 4.6c0-.3 0-.7.1-1 .1-.6-.1-.9.5-.9s.5.4.5.8c.3 1-.1 1.4-1.1 1.1zm3.5-4.6c-.2.4-.4.7-.9.6-.1 0-.3-.1-.4.1-.1 0-.2-.1-.4-.1-.6 0-.8-.3-.5-.9.1-.2.1-.5.2-.7.2-.1.4-.3.7-.4.4-.2.8-.1 1.1.3.3.3.4.7.2 1.1zm2.5-300.9c-.2-1 .2-1.3 1.1-1.1 0 .3 0 .7-.1 1-.1.6.1.9-.5.9s-.5-.4-.5-.8zm2.2 303.2c-.3.2-.4.7-.9.7s-.9-.1-1.1-.6c-.2-.4 0-.8.3-1 .7-.5 1.2 0 1.6.6.1.1.1.2.1.3zm1.6-1c-.6.1-.9-.1-.7-.7h.7c.4.1.6 0 .6.4-.1.4-.3.3-.6.3zm2.5-3.4c-.7.1-1-.1-.8-.8.2 0 .5 0 .7.1.5.1.6 0 .6.4s-.3.3-.5.3zm5 3.7c-.1.5-.3 1-.9 1-.2 0-.4 0-.5.2h-.5c-.6.1-1-.1-1-.5-.2.2-.5.2-1 .1 0-.3 0-.7.1-1 .1-.6-.1-.9.5-.9.4 0 .5.1.5.3.2-.2.4-.5.6-.6.2-.1.4-.2.6-.2v-.4c.2 0 .5 0 .7.1.5.1.6 0 .6.4 0 .3-.1.4-.3.4.6.3.7.6.6 1.1zm4.1-303.8c-.1.6.1.9-.5.9s-.5-.4-.5-.8c-.2-1 .2-1.3 1.1-1.1 0 .3-.1.7-.1 1zm3.9 8.2c-.4.3-.5-.1-.6-.4.1-.1.3-.2.4-.2.2.2.4.4.2.6zm5.7-2.6c-.3.2-.6.3-1 .1-.3-.2-.4-.5-.2-.8.3-.6.8-.5 1.3-.3 0 .1.1.1.1.2 0 .2.1.6-.2.8zm.3-8.4c-.4.4-.5-.1-.7-.4.1-.1.3-.2.4-.3.3.1.6.4.3.7zm5.1 307.1c-.4.2-.6.8-1.3.8-.7-.1-1.1-.3-1.3-1-.2-.6.2-1.1.6-1.3 1.1-.5 1.6.2 2 1.1.1.1 0 .3 0 .4zM202 8.9c-.1.1-.2.1-.3.2-.5.5-.8.4-1-.2-.1-.2-.3-.4-.4-.6.1-.3.1-.5.2-.8.2-.4.5-.6.9-.6.5 0 .8.2 1 .6.2.4.2.8-.2 1.1-.1.1-.2.1-.2.3zm.3 2.8c0-.8-.1-1.8.2-2.1.3-.3 1.8-.4 2 0 .2.4 0 1.4-.2 2.1.4 1-2.2 1-2 0zm9.8-4.9c.3 0 .6 0 .9.1.5.1.7-.1.7.5s-.3.5-.7.4c-.8.2-1.1-.2-.9-1zM208 4.9c.3 0 .6 0 .9.1.5.1.8-.1.7.5s-.3.5-.7.5c-.8 0-1.1-.3-.9-1.1zm-1 1.7c-.4.4-.8.6-1.3.3-.5-.2-.6-.6-.5-1 .2-.9.9-.9 1.7-.8.1.1.2.2.2.3 0 .4.3.8-.1 1.2zm.7 2.7c.3 0 .6 0 .8.1.5.1.7-.1.7.4s-.3.4-.6.4c-.8.2-1.1-.1-.9-.9zm1.3 7.1c-.6-.3-.9-.7-.8-1.4.1-.6.6-.9 1.1-.9 1.1 0 1.4.8 1.4 1.8-.1.1-.2.2-.2.4-.6 0-1 .4-1.5.1zm5.2 295.9c-.2.7-.6 1.2-1.4 1.2-.2 0-.5-.1-.7.2-.2 0-.4-.1-.6-.1-1.1.1-1.4-.4-1-1.4.1-.4.1-.8.2-1.2.4-.3.7-.6 1.1-.8.7-.3 1.3-.2 1.9.3.5.4.7 1.1.5 1.8zm.8-2.9c-.1.6.1.9-.5.9s-.5-.4-.5-.8c-.2-1 .2-1.3 1.2-1.1 0 .3-.1.6-.2 1zm4.8 3.2c-1 0-1.8.9-3 .3-1.2-.7-1.7-1.6-1.5-2.9.2-1.2 1.2-1.8 2.2-1.8.5 0 1 .1 1.3.3v-.3c-.2-1 .2-1.3 1.2-1.1 0 .3 0 .7-.1 1-.1.6 0 .9-.5.9.6.7.8 1.8.8 2.9 0 .2-.2.4-.4.7zm2.1-301.5c-.8-.4-.2-.9.1-1.3.2.2.5.3.7.5 0 .5-.3 1-.8.8zm2.8 299.2c-.1.6.1.9-.5.9s-.5-.4-.5-.8c-.2-1 .2-1.3 1.2-1.1-.1.3-.1.7-.2 1zm3.4-.5c-.7.1-1.2-.1-1.5-.7-.3-.6-.1-1.1.3-1.4 1-.7 1.7-.2 2.3.6v.5c-.4.2-.5.9-1.1 1zM230 13.7c-.9 1.4-2 2.1-3.6 1.7-1.5-.3-2.2-1.5-2.1-2.8.1-2.9 2.2-3.3 4.6-3.3l.9.6c0 1.4 1 2.5.2 3.8zm.8-10.5c.3-.2.5-.4.8-.5.5.3 1 .7.5 1.2-.8.6-1.1-.2-1.3-.7zm3.4 2.6c-.9 1.6-1.8.3-2.6-.4.3-.5.7-.9 1-1.4 1.2.1 2.2.7 1.6 1.8zM238 5c.4-.2 1.4-.1 2.1 0 1-.4 1.2 2.1.1 2-.8 0-1.8.2-2.1-.1-.3-.2-.5-1.7-.1-1.9zm3.9 5.8c-.2.2-.5.3-.3.6-.2.1-.4.2-.5.4-.8.8-1.4.7-1.8-.3-.2-.4-.5-.7-.7-1.1.1-.5.1-.9.2-1.4.2-.7.8-1.1 1.6-1.2.8-.1 1.5.3 1.8 1 .2.7.3 1.4-.3 2zm4.9 304.5c-.2.2-.3.4-.5.6-.9 0-1.7.7-2.7.1-1-.7-1.5-1.5-1.2-2.7.3-1.1 1.2-1.5 2.1-1.5 2.2.2 2.4 1.8 2.3 3.5zm.3-6.9c-1 .1-.7-.7-.6-1.3h.9c.3.6.3 1.3-.3 1.3zm15.2-293.2c.4.4.7 1 .1 1.3-.9.4-.9-.4-1-1l.9-.3zm-6.5-3.1c-.2.4-.7.8-.2 1.3-.2.3-.5.6-.7 1-.8 1.9-2 2.1-3.4.5-.6-.5-1.3-.9-1.9-1.4-.1-.4-.2-.9-.3-1.3-.5-.5-.8-1.2-.8-1.9.1-2.5 2-2.9 4-2.8l.2.2c.8 0 1.6.3 2.3 1 .9.8 1.5 2 .8 3.4zm1.6-7.4c-.6 1.1-1.3.2-1.8-.3.2-.3.5-.7.7-1 .8.1 1.5.5 1.1 1.3zm5.5 305.7c-.2.1-.3.2-.5.4-.6-.2-1.3.2-1.9-.4-.6-.6-.8-1.3-.3-2.1.4-.7 1.1-.9 1.7-.7 1.5.5 1.4 1.6 1 2.8zm2.9-305.3c-.8 0-1.8.2-2.1-.1s-.6-1.7-.2-2 1.4-.1 2.1 0c1-.4 1.2 2.2.2 2.1zm2.7 12.2c-.6.3-1.2.2-1.6-.3-.4-.5-.4-1.1 0-1.5.8-.9 1.6-.6 2.4 0 0 .1.1.3.1.4-.4.5-.3 1.2-.9 1.4zm4.1-8.2c-.2.3-.5.5-.2.9-.2.2-.3.5-.5.7-.6 1.4-1.4 1.5-2.4.4-.5-.3-.9-.7-1.4-1-.1-.6-.3-1.2-.3-1.8 0-1 .5-1.7 1.4-2.1 1-.4 1.9-.3 2.7.5.8.6 1.2 1.4.7 2.4zm.1-5.9c-.9.4-.9-.4-1-1l.9-.3c.5.4.7 1 .1 1.3zm47 197.5c0 .3 0 .6-.1.9-.1.5.1.7-.5.7-.5 0-.5-.3-.4-.7-.2-.8.2-1.1 1-.9zm-.9 7.1c0-2.2-.1-4.1-.1-6.9 0 1.7.1 3.9.1 6.9zm.2-16.8c-.4.2-.8.2-1.1-.2-.1-.1-.1-.3-.3-.2-.1-.1-.1-.2-.2-.3-.5-.5-.4-.8.2-1 .2-.1.4-.3.6-.4.2 0 .4.1.6.1 0-2.1-.1-4.1-.1-6.1 0 .3 0 .9.1 1.4v4.7h.1c.4.2.6.5.6.9.1.5-.1.9-.5 1.1zm-8.9 6.5c.3-.6.7-.9 1.4-.8.6.1.9.6.9 1.1 0 .3-.1.6-.2.8.7 0 .9.3.7 1.2-.3 0-.7 0-1-.1-.6-.1-.9 0-.9-.5h-.4c-.1-.1-.2-.2-.4-.2.1-.5-.4-.9-.1-1.5zm.9 52.5l.3.9c-.4.4-1 .7-1.3.1-.4-.9.4-.9 1-1zm.4-71.3c.1.1.2.3.2.4-.1.3-.4.4-.6.2-.2-.3.2-.4.4-.6zm2.5-67.6c-1 .2-1.3-.2-1.1-1.2.3 0 .7 0 1 .1.6.1.9-.1.9.5-.1.7-.5.6-.8.6zm.8 47.9c-.1.5-.5.3-.8.2 0-.2.1-.3.1-.5.3-.1.7 0 .7.3zm-1.3-43.1c0 .9-.8.6-1.3.4 0-.3.1-.6.1-.9.6-.2 1.2-.2 1.2.5zM313 177c.3 0 .7 0 1 .1.6.1.9-.1.9.5s-.4.5-.8.5c-1 .3-1.3-.1-1.1-1.1zm1.2-29.1v-.7c.4-.2.9-.2.9.2.1.7-.5.5-.9.5zm2.7 43.1c.3.3.4 1.8 0 2-.4.2-1.4 0-2.1-.2-1 .4-1-2.2 0-2 .8 0 1.8 0 2.1.2zm-1.2-9.4c.3 0 .7 0 1 .1.6.1.9-.1.9.5s-.4.5-.8.5c-1 .3-1.3-.1-1.1-1.1zm-.2 28.8c.4-.8.9-.2 1.3.1-.2.2-.3.5-.5.7-.6.1-1.1-.2-.8-.8zm1.2-12.7c-.5 0-.4-.3-.4-.6-.2-.8.1-1.1.9-.9 0 .3 0 .6-.1.8-.1.6.1.8-.4.7zm1.5 23.1c-.3 0-.7 0-1-.1-.6-.1-.9.1-.8-.5s.4-.5.8-.5c.9-.2 1.2.1 1 1.1zm-.8 6.4c.7.2 1.1.8 1.2 1.6.1.8-.3 1.5-1 1.8-.6.3-1.3.4-1.9-.2-.2-.2-.3-.5-.6-.3-.1-.2-.2-.4-.4-.5-.8-.8-.7-1.4.3-1.8.4-.2.7-.5 1.1-.7.4 0 .9 0 1.3.1zm3.1-49.5c0 .6-.4.5-.8.5-1 .2-1.3-.2-1.1-1.2h.3v-.9.9c.2 0 .4 0 .7.1.7.1 1-.1.9.6zm-.2-2.2c-.3 0-.7 0-1-.1-.6-.1-.9.1-.9-.5s.4-.5.8-.5c1-.3 1.4.1 1.1 1.1zm-.8-11c.1 0 .2 0 .3.1.1.3.4.4.4.8-.1.4-.3.6-.6.7-.4.1-.6-.1-.7-.4-.4-.7.1-1 .6-1.2zM318 160c1-.2 1.3.2 1.1 1.1-.3 0-.7 0-1-.1-.6-.1-.9.1-.9-.5 0-.5.4-.5.8-.5zm-1.5 12.2c.6.1.9-.1.9.5s-.4.5-.8.5c-1 .2-1.3-.2-1.1-1.2.4.1.7.1 1 .2zm.3-73.5c-1 .2-1.3-.2-1.1-1.2.3 0 .7 0 1 .1.6.1.9-.1.9.5 0 .7-.4.6-.8.6zm2.3.9c-.7-1-.2-1.7.6-2.3h.5c.3.4 1 .5 1 1.1.1.7-.1 1.2-.7 1.5-.6.4-1.1.2-1.4-.3zm3.5 2.7c0 .6-.4.5-.8.5-1 .2-1.3-.2-1.1-1.2.3 0 .7 0 1 .1.7.2 1 0 .9.6zM320.1 46c.7.3 1.2.9.7 1.5-.9.9-1.2-.1-1.6-.7.3-.3.6-.5.9-.8zm-.7-6.1v-1.7 1.7zm.1-7.7c-.6.7-1.5 1.1-1.9.2-.6-1.3.6-1.3 1.5-1.5.1.5.3.9.4 1.3zM305.9.4c1.4.3 2.7 1.1 1.9 2.5-1.3 2-2.4.3-3.3-.7.5-.6 1-1.2 1.4-1.8zM279 309.3c-.9-.9.1-1.2.7-1.6.2.3.5.6.7.9-.2.7-.8 1.3-1.4.7zm1.1-296.5c-.2.1-.5.1-.5.5-.2.1-.4.1-.6.2-1 .6-1.5.3-1.6-.8-.1-.4-.3-.8-.4-1.2 0-.1.1-.2.1-.2-.7.1-1.5.1-1.7-.1-.3-.2-.6-1.7-.2-2 .4-.2 1.4-.1 2.1 0 .4-.2.7.2.8.6.4-.2.8-.3 1.3-.2.8.2 1.3.7 1.4 1.5.1.6 0 1.3-.7 1.7zm6-.4c-.2.1-.3.2-.5.3-.6-.3-1.3 0-1.8-.7s-.6-1.4 0-2.1c.5-.7 1.2-.7 1.8-.4 1.3.7 1 1.8.5 2.9zm5.2 297.2c.3.2.7.4 1 .6 0 .7-.3 1.5-1.1 1.1-1.1-.4-.3-1.1.1-1.7zm4.8 4.4c-.1.9-.6 1.5-1.5 1.8-1 .3-1.8.1-2.5-.7-.5-.7-.9-1.5-.3-2.3.2-.3.5-.5.2-.8.2-.2.3-.4.5-.6.7-1.2 1.4-1.3 2.2-.1.4.3.8.7 1.2 1 .1.5.2 1.1.2 1.7zm6.2-300.3c-.7-1 .3-1.2 1-1.5.2.3.4.7.6 1-.4.7-1.1 1.1-1.6.5zm0-8.5c-3.7.1-7.8.2-11.5.3-5.4-.3-1.6-.4-7-.5 9.8-.3 20.3-.6 30.5-1h1c.3 0 .7 0 .9.2.3.2.4.5.3.9v1c0 1.1.1 2.1.1 3.2h.9l.9.6c.1 1.2 1.2 2.3.4 3.7-.5.9-1.2 1.6-2 1.8 0 1.5.1 2.9.1 4.3.1 2.1.1 4.1.2 6 1-.4 1.2 2.1.1 2h-.1c.1 3.1.2 6.1.3 9 .2 4.3.3 8.3.5 11.8.1.3.2.8 0 1.2.1 2.2.2 4.1.3 5.8.2 0 .4.1.6.1.6-.3.9.8.8 1.5.3.3.4.7.1 1.2-.5.8-.9.8-1.4.5 0 .5.1.9.1 1.4.1 1.7.1 3.4.2 5.1.1 0 .2.1.3.1-.1-.3-.1-.6 0-.9.5-1.4 1.6-1.4 2.8-1 .1.2.2.3.4.5-.2.6.2 1.3-.4 1.9-.4.4-.9.6-1.3.6.7.7 1 1.6.7 2.7-.1.5-.5 1 .1 1.4-.2.4-.4.8-.5 1.2-.3 1.4-.8 2.1-1.6 2.1v.7c-.1 1.1-.1 1.6 0 4.2.4-.1.7.1.7.5.1.6-.3.7-.7.7 0 .6.1 1.4.1 2.2-.2.4-.4.8-.5 1.3-.2-.2-.4-.1-.6 0-.1-.3-.2-.4-.3 1.3h.3c.7.1 1.3.4 1.5 1.2.1.2 0 .5.3.6v.6c.3 1.1-.1 1.5-1.2 1.4-.4 0-.8 0-1.1.1-.1.9-.2 2-.3 2.8-.2.1-.4-.1-.6 0-.3-1.5-.7-3-1-4.8-.1-2-.2-2.5-.3-4.2-.1-.3-.3-.7-.4-1 .1-3 .1-6 .2-9-.2-.1-.4-.2-.6-.2-.4-.9-.9-1.7-1.1-2.6-.3-1.5.2-2.8 1.5-3.7.1-.1.2-.1.3-.2.1-6 .2-14.3.1-14.9v-.4c-.1 0-.2-.1-.3-.1-.3-.2-.6-1.7-.2-2 .1-.1.3-.1.5-.1.1-5.7.2-12 .3-18.4v-1.8c-.3 0-.6 0-.7-.1-.3-.2-.6-1.7-.2-2 .2-.1.6-.1 1-.1 0-2.4.1-4.8.1-7.3v-2.8h-1c-1.6-.3-2.3-1.5-2.3-2.8 0-2.4 1.4-3.2 3.2-3.4 0-.2-.1-.3-.1-.5-.1-.3-.2-.6-.4-.9l-.6-.9c-.3-.3-.6-.5-.9-.7-.3-.2-.6-.3-.9-.4-.6-.3-1.4-.5-2.3-.5-2.6-.4-5.5-.4-8.3-.5zm6.9 251.8c-.3-.6-.2-1.2.3-1.6.5-.4 1.1-.4 1.5 0 .9.8.6 1.6 0 2.4-.1 0-.3.1-.4.1-.5-.4-1.1-.3-1.4-.9zm7.4 49.9c-1.2.1-2.3 1.2-3.7.4-.5-.3-.9-.6-1.2-.9h-.3v-.3c-.5-.6-.6-1.4-.5-2.4.1-.5.3-.9.5-1.2v-1.2c.8 0 1.5-.1 2.3-.1v.2c2.9.1 3.4 2.2 3.4 4.6 0 .3-.3.6-.5.9zm.2-40.3c.2.4.3.8.2 1.3-.2.8-.7 1.3-1.5 1.4-.6.1-1.2 0-1.6-.5v5c.1-.5 0-1.2.6-1.6.7-.5 1.4-.6 2.1 0 .7.5.7 1.2.4 1.8-.7 1.4-1.8 1.1-2.9.6-.1-.1-.1-.3-.2-.4-.1 5.3-.1 10.8-.2 16.5.3.2.4.7.6 1.1l-.6.3v5.8c.1.2.1.6.1 1.2-.7 0-1.5 0-2.2.1 0-1.2 0-2.3.1-3.5.1-5.8.1-11.5.1-16.8.1-8.1.2-15.6.4-23.7.2-2.9.3-7.3.4-11.6-.1-.1-.2-.2-.3-.2-1.9-.8-2.1-2-.5-3.4l.9-1.2v-4.2c-.1-2.1.1-6 .1-8.8.2-1.3.3-3.9.3-7.2-.1 0-.1-.1-.2-.1-1.4-.9-2.1-2-1.7-3.6.2-1.2 1.1-1.9 2-2.1 0-2.6.1-5.3.1-7.9-.1-.2-.1-.5 0-.9.1-4.1.1-8 .3-10.9 0-.2-.1-.5-.1-.8-.1-7.3.2-6.4.3-13.8v1.3c.4-.2.4 1.5.4 3.8h.3c.6.3.5.8.3 1.3-.1 0-.1.1-.2.1-.1-.1-.3 0-.5-.1-.1 3.6-.2 8.2.1 10.5-.3 2-.2 5-.2 8.3h.2c.6.1.9-.1.9.5s-.4.5-.8.5h-.3c0 2.5.1 5.2-.1 7.5 2.8.2 3.3 2.3 3.2 4.6l-.6.9c-.9 0-1.7.5-2.5.5 0 6.2.1 12.7.1 19.1.1 0 .3-.1.4-.1.5-.5 1.2-.8 1.9-.8 2.5.1 2.9 2 2.8 4l-.2.2c0 .8-.3 1.6-1 2.3-.9.9-2.1 1.5-3.5.8-.2-.1-.3-.2-.5-.3v8.4c.1 4.5.1 8.9.1 13.4.4-.1.8-.3 1.2-.4.1 0 .2.1.2.1-.1-.7-.1-1.5.1-1.7.2-.3 1.7-.6 2-.2.2.4.1 1.4 0 2.1 0 1.1-.3 1.4-.8 1.5z"></path><path d="M10.1 44.9c.2 0 .5-.1.6 0-.2-1-.4.5-.6-1.7v1.7zM8 274.3c.1.7.1 1.3.2 2.1.2-.1.4 0 .5.1h.2c-.1-1.4-.1-2.9-.2-4.5 0-1.1-.1-2.4-.1-3.6-.3.1-.5.2-.8.2 0 1.9.1 3.8.2 5.7zm-.6-139.7c-.2-6.2-.3-11.7-.2-12.6 0-1.7-.1-3.6-.1-5.4-.4.3-.8.4-1.3.1-.2-.1-.3-.2-.5-.2.2 5.8.3 12.9.4 18.9 0-.3.1-.5.2-.6.2-.1 1-.2 1.5-.2zm1.5 153.6c.2 1.4.3 2.5.5 3.6 0-1.9-.1-3.6-.1-5.3-.2.2-.4.3-.6.4 0 .3.1 1 .2 1.3zM5.7 12.7c-1.4.1-3 0-4.2.4-.6.2-1.2.8-1.3 1.4-.1.6-.2 1.3-.2 2l.1 1.9c.1 3.3.1 6.7.2 10.1v.4c.2-.3.3-.7.5-1-.1-3.2-.3-6.5-.4-9.7v-1.5c0-.6 0-1.2.1-1.8 0-.6.5-1.1 1-1.3 1-.4 2.3-.4 3.5-.4 2-.1 3.8-.2 5.6-.2v-.5l-4.9.2zM4.2 39.9c-.3 0-.7-.1-1-.1.1 3.4.2 6.7.3 10 .1-.1.3-.2.4-.3.2.2.5.4.7.6-.1.6-.5 1.1-1.1.8 0 1.2.1 2.4.1 3.6.2-.1.5-.1.8 0 0 .3 0 .7-.1 1-.1.6.1.9-.5.9h-.1c.1 2.4.1 4.8.2 7.1v1c.5 0 1.2.2 1.3.5.1.4-.4 1.4-.7 2 0 .3-.2.5-.5.5l.6 15.6c.1.1.2.1.2.2.1.3 0 .7-.2 1.2 0 .8.1 1.5.1 2.3L5 99.1c0 .7.1 1.5.1 1.9-.3.5.2 9.5.2 12.7.4-.1.7-.2 1.1-.2.2 0 .5.1.7.2-.1-1.6-.2-3.1-.2-4.4-.2-7.3-.3-14.1 0-13.2.2 7 .5 14.7.6 17.9l.1.1c0-7.5-1.1-27.4-.8-31.2-.4-7.5-.5-5.9-.8-12.6 0-1.3 0-3.6-.1-6.4-1.1-.8-1.1-1.8-.1-2.8-.1-4.1-.3-8.7-.4-12.4.1-1.7 0-5.4-.1-9.3-.5-.1-.9 0-1.1.5zm2.4 52.2v-.8c-.1-3-.3-7-.3-9-.1-2.5.1 2.8.3 9.8zm7.7 169.7c0 1.7-.1 3.4-.1 5.2v2.6c.3-.1.9-.1 1.3-.1 0-2.8.1-5.7.1-8.5-.4.4-.7.8-1.3.8zm.1-13.9c0-.1.1-.2.1-.2.2-.1.6-.1 1.1-.1 0-1.9 0-4.1.1-7.5h-1.3v7.8zm-9.1-86.7c-.1-3.8-.3-7.3-.4-10.8 0 0-.1 0-.1-.1s.1-.2.1-.3c-.1-3.2-.2-6.5-.4-10.4 0-.4-.1-.8-.1-1.2-.3-.1-.3-.4-.3-.7-.1-.5-.1-.8.1-1 0-.2 0-.5-.1-.8-.1-3.9-.3-7.8-.4-11.9-.2 0-.3 0-.5-.1l-.1-.1.4 14.3c.2 6 .4 11.9.5 17.9.1 4.1.3 8.6.4 12.7.1 3.5.2 6.9.3 10.3.3 0 .6.1.8.1.2-.1.3-.1.4 0 0-3.6 0-7.4-.4-14.9.1-.8 0-1.9-.2-3zm9.3 88.4c-.1-.1-.2-.3-.3-.6 0 3.2 0 6.4-.1 9.7.4 0 .7.2.9.4h.4c0-2.9.1-5.8.1-8.6 0-.2-.1-.5-.1-.8-.3.1-.7.1-.9-.1zm313.3 1.7c-.1-2.2-.2-4.4-.3-6.7 0-.9 0-1.8-.1-2.7-.3.1-.6.1-.9-.1l-.1-.1c.1.5.1 1.4-.2 1.6-.2.1-.6.1-1 0 .2 4.8.4 9.8.6 14.9 0-.1.1 0 .1.3.3 0 .6 0 .7.2.2.4.1 1.4 0 2.1.2.4-.1.6-.5.7.1 2.5.3 6 .4 9.2-.3 4.4.4 14.8.7 24.9.5-.2 1-.1 1.4.2.3.3.4.5.5.8 0-1.2-.1-2.5-.1-3.7 0-4.5.2-2.4.1-5.4-.2-6.7-.5-10.7-.8-16.2-.2-5-.4-10.1-.6-15.1-1.1-.9-1.6-1.9-1.2-3.4.4-.7.8-1.2 1.3-1.5z"></path></g><g id="SvgjsG184426" class="text" transform="translate(107.44900906936346, 124.82447164435919) scale(1)" light-content="false" fill="#ffffff"><path d="M-26.77 -3.3L-26.77 -36.14L-33.33 -36.14L-33.33 -6.55L-44.84 -6.55C-45.04 -6.55 -45.47 -6.58 -46.12 -6.64C-46.76 -6.7 -47.51 -6.85 -48.36 -7.08C-49.21 -7.32 -50.1 -7.68 -51.04 -8.17C-51.98 -8.65 -52.85 -9.32 -53.64 -10.18C-54.43 -11.04 -55.08 -12.11 -55.59 -13.38C-56.1 -14.66 -56.36 -16.22 -56.36 -18.07L-56.36 -36.14L-62.91 -36.14L-62.91 -18.07C-62.91 -15.95 -62.66 -14.03 -62.16 -12.31C-61.65 -10.59 -60.96 -9.06 -60.08 -7.72C-59.2 -6.39 -58.17 -5.23 -56.99 -4.26C-55.81 -3.28 -54.56 -2.48 -53.22 -1.85C-51.89 -1.22 -50.5 -0.76 -49.08 -0.45C-47.65 -0.15 -46.24 0 -44.84 0L-30.08 0C-29.62 0 -29.19 -0.08 -28.79 -0.25C-28.39 -0.42 -28.03 -0.65 -27.73 -0.95C-27.43 -1.24 -27.19 -1.59 -27.03 -1.99C-26.86 -2.39 -26.77 -2.83 -26.77 -3.3Z M32.43 -2.8L32.43 -36.14L25.88 -36.14L25.88 -10.69L1.94 -35.66C1.47 -36.15 0.91 -36.45 0.25 -36.58C-0.4 -36.71 -1.04 -36.64 -1.66 -36.39C-2.25 -36.12 -2.73 -35.71 -3.11 -35.17C-3.49 -34.62 -3.68 -34.01 -3.68 -33.34L-3.68 0L2.87 0L2.87 -25.45L26.81 -0.45C27.13 -0.12 27.5 0.13 27.91 0.28C28.32 0.43 28.73 0.5 29.13 0.5C29.59 0.5 30.01 0.42 30.42 0.25C30.82 0.08 31.17 -0.15 31.46 -0.44C31.76 -0.74 31.99 -1.08 32.17 -1.49C32.35 -1.89 32.43 -2.33 32.43 -2.8Z M62.13 0L62.13 -36.14L55.58 -36.14L55.58 0Z"></path></g><g id="SvgjsG184427" class="text" transform="translate(340.44839955899135, 124.77334984005499) scale(1)" light-content="false" fill="#1f1f1f"><path d="M-81.3 -30.36L-121.39 -30.36L-121.39 0L-117.05 0L-117.05 -24.03C-117.05 -24.59 -116.85 -25.07 -116.45 -25.47C-116.05 -25.87 -115.57 -26.07 -115.01 -26.07L-102.34 -26.07C-101.78 -26.07 -101.3 -25.87 -100.9 -25.47C-100.5 -25.07 -100.3 -24.59 -100.3 -24.03L-100.3 0L-95.95 0L-95.95 -24.03C-95.95 -24.59 -95.75 -25.07 -95.35 -25.47C-94.95 -25.87 -94.47 -26.07 -93.91 -26.07L-81.3 -26.07C-80.74 -26.07 -80.25 -25.87 -79.83 -25.47C-79.41 -25.07 -79.2 -24.59 -79.2 -24.03L-79.2 0L-74.96 0L-74.96 -24.03C-74.96 -25.77 -75.57 -27.26 -76.79 -28.5C-78.02 -29.74 -79.52 -30.36 -81.3 -30.36Z M-59.83 0L-55.54 0L-55.54 -30.36L-59.83 -30.36ZM-59.83 -40.31L-59.83 -36.02L-55.54 -36.02L-55.54 -40.31Z M-32.98 -4.29C-33.54 -4.29 -34.02 -4.49 -34.42 -4.89C-34.82 -5.3 -35.02 -5.78 -35.02 -6.33L-35.02 -24.03C-35.02 -24.59 -34.82 -25.07 -34.42 -25.47C-34.02 -25.87 -33.54 -26.07 -32.98 -26.07L-8.48 -26.07L-8.48 -30.36L-32.98 -30.36C-34.72 -30.36 -36.22 -29.74 -37.45 -28.5C-38.69 -27.26 -39.31 -25.77 -39.31 -24.03L-39.31 -6.33C-39.31 -4.59 -38.69 -3.1 -37.45 -1.86C-36.22 -0.62 -34.72 0 -32.98 0L-8.38 0L-8.38 -4.29Z M13.92 -30.36C12.18 -30.36 10.69 -29.74 9.45 -28.5C8.21 -27.26 7.59 -25.77 7.59 -24.03L7.59 0L11.88 0L11.88 -24.03C11.88 -24.59 12.08 -25.07 12.48 -25.47C12.89 -25.87 13.37 -26.07 13.92 -26.07L30.99 -26.07L30.99 -30.36Z M50.88 -30.36C49.14 -30.36 47.65 -29.74 46.41 -28.5C45.17 -27.26 44.55 -25.77 44.55 -24.03L44.55 -6.33C44.55 -4.59 45.17 -3.1 46.41 -1.86C47.65 -0.62 49.14 0 50.88 0L69.1 0C70.88 0 72.39 -0.62 73.63 -1.86C74.87 -3.1 75.49 -4.59 75.49 -6.33L75.49 -24.03C75.49 -25.77 74.87 -27.26 73.63 -28.5C72.39 -29.74 70.88 -30.36 69.1 -30.36ZM69.1 -26.07C69.66 -26.07 70.14 -25.87 70.54 -25.47C70.94 -25.07 71.14 -24.59 71.14 -24.03L71.14 -6.33C71.14 -5.78 70.94 -5.3 70.54 -4.89C70.14 -4.49 69.66 -4.29 69.1 -4.29L50.88 -4.29C50.32 -4.29 49.84 -4.49 49.44 -4.89C49.04 -5.3 48.84 -5.78 48.84 -6.33L48.84 -24.03C48.84 -24.59 49.04 -25.07 49.44 -25.47C49.84 -25.87 50.32 -26.07 50.88 -26.07Z M115.22 -30.36L90.61 -30.36L90.61 0L94.91 0L94.91 -24.03C94.91 -24.59 95.12 -25.07 95.53 -25.47C95.95 -25.87 96.44 -26.07 97 -26.07L115.22 -26.07C115.78 -26.07 116.26 -25.87 116.66 -25.47C117.06 -25.07 117.26 -24.59 117.26 -24.03L117.26 0L121.55 0L121.55 -24.03C121.55 -25.77 120.93 -27.26 119.69 -28.5C118.45 -29.74 116.96 -30.36 115.22 -30.36Z"></path></g></g></g></svg>